<?xml version="1.0" encoding="iso-8859-1"?>
<!-- Generator: Adobe Illustrator 19.0.0, SVG Export Plug-In . SVG Version: 6.00 Build 0)  -->
<svg version="1.1" id="Capa_1" xmlns="http://www.w3.org/2000/svg" xmlns:xlink="http://www.w3.org/1999/xlink" x="0px" y="0px"
	 viewBox="0 0 512.001 512.001" style="enable-background:new 0 0 512.001 512.001;" xml:space="preserve">
<path style="fill:#ECEEFF;" d="M434.737,76.669L434.737,76.669c-33.491-33.491-87.791-33.491-121.282,0l-31.737,31.737L403,229.688
	l31.737-31.737C468.228,164.459,468.228,110.16,434.737,76.669z"/>
<path style="fill:#C8D0FF;" d="M450.557,345.894l-45.422-110.988c-1.41-3.444-3.491-6.574-6.122-9.205L285.705,112.393
	c-2.632-2.632-5.761-4.713-9.205-6.122L165.512,60.848c-11.24-4.6-24.08,0.783-28.68,12.023c-3.459,8.454-1.272,17.81,4.806,23.888
	c2.004,2.004,4.43,3.652,7.217,4.792l99.143,40.574L38.241,351.882c-11.014,11.014-11.689,28.96-0.981,40.272
	c11.11,11.736,29.635,11.929,40.987,0.576l83.97-83.97c11.014-11.014,28.96-11.689,40.272-0.981
	c11.736,11.11,11.929,29.635,0.576,40.987l-83.97,83.97c-11.014,11.014-11.689,28.96-0.981,40.272
	c11.11,11.736,29.635,11.929,40.987,0.576l210.176-210.176l40.574,99.143c1.141,2.787,2.788,5.213,4.792,7.217
	c6.079,6.079,15.435,8.265,23.888,4.806C449.774,369.974,455.156,357.134,450.557,345.894z"/>
<path style="fill:#FFE5BB;" d="M257.14,291.474l-37.21-37.21c-4.323-4.323-4.323-11.333,0-15.657l48.836-48.836
	c4.323-4.323,11.333-4.323,15.657,0l37.21,37.21c4.323,4.323,4.323,11.333,0,15.657l-48.836,48.836
	C268.474,295.799,261.464,295.799,257.14,291.474z"/>
<g>
	
		<rect x="20.136" y="19.62" transform="matrix(-0.7071 -0.7071 0.7071 -0.7071 43.774 103.919)" style="fill:#ECEEFF;" width="46.546" height="46.546"/>
	
		<rect x="445.304" y="445.826" transform="matrix(-0.7071 -0.7071 0.7071 -0.7071 468.207 1132.1366)" style="fill:#ECEEFF;" width="46.546" height="46.546"/>
</g>
<path d="M347.619,116.635c2.635,0,5.199-1.058,7.066-2.914c1.856-1.856,2.914-4.431,2.914-7.056c0-2.635-1.058-5.209-2.914-7.066
	c-1.866-1.856-4.431-2.914-7.066-2.914c-2.625,0-5.199,1.058-7.056,2.914c-1.856,1.856-2.924,4.431-2.924,7.066
	c0,2.625,1.068,5.199,2.924,7.056C342.42,115.577,344.994,116.635,347.619,116.635z"/>
<path d="M442.314,383.81c16.314-6.677,24.156-25.382,17.479-41.697l-45.043-110.063l27.044-27.044
	c37.329-37.329,37.329-98.067,0-135.396c-37.329-37.328-98.067-37.328-135.396,0l-27.045,27.045L169.291,51.612
	c-16.313-6.674-35.018,1.165-41.696,17.48c-4.893,11.958-2.152,25.588,6.985,34.724c3.006,3.005,6.536,5.35,10.495,6.972
	l85.257,34.892l-26.066,26.066l-11.909-11.909c-8.043-8.043-18.734-12.471-30.107-12.471c-11.374,0-22.066,4.429-30.107,12.47
	c-8.82,8.82-23.169,8.82-31.988,0l-12.657-12.657c-16.602-16.601-43.614-16.6-60.215,0L8.006,166.455
	c-3.897,3.897-3.897,10.216,0,14.114s10.216,3.897,14.114,0l19.276-19.276c8.82-8.818,23.17-8.818,31.989,0l12.657,12.657
	c16.602,16.601,43.614,16.601,60.215,0c4.272-4.272,9.952-6.624,15.993-6.624c6.042,0,11.722,2.352,15.994,6.625l11.909,11.909
	L31.186,344.825c-14.863,14.863-15.388,39.172-1.172,54.189c7.228,7.635,16.991,11.92,27.49,12.064
	c10.497,0.155,20.375-3.866,27.802-11.292l83.97-83.971c7.291-7.289,19.113-7.645,26.354-0.79c3.688,3.492,5.759,8.204,5.828,13.269
	c0.07,5.068-1.865,9.832-5.448,13.415l-83.97,83.97c-14.863,14.863-15.388,39.172-1.171,54.189
	c7.228,7.635,16.99,11.92,27.489,12.064c0.183,0.002,0.364,0.003,0.547,0.003c10.298,0,19.959-3.999,27.256-11.295l78.39-78.391
	c3.897-3.897,3.897-10.216,0-14.113c-3.897-3.896-10.216-3.896-14.113,0l-78.39,78.391c-3.584,3.583-8.366,5.513-13.415,5.448
	c-5.065-0.069-9.777-2.139-13.269-5.828c-6.855-7.241-6.501-19.064,0.79-26.355l83.97-83.97
	c7.426-7.426,11.437-17.299,11.292-27.801c-0.144-10.499-4.428-20.263-12.064-27.491c-15.018-14.217-39.327-13.691-54.189,1.172
	l-83.97,83.97c-3.584,3.583-8.367,5.483-13.415,5.448c-5.065-0.07-9.777-2.14-13.269-5.828c-6.855-7.241-6.501-19.065,0.79-26.355
	l209.756-209.756c2.362-2.362,3.386-5.749,2.726-9.025c-0.66-3.275-2.912-6.004-6.004-7.268l-99.141-40.573
	c-1.493-0.612-2.819-1.491-3.942-2.615c-3.434-3.434-4.466-8.557-2.627-13.051c2.509-6.129,9.535-9.074,15.665-6.568l110.987,45.422
	c2.23,0.913,4.225,2.239,5.929,3.943l113.308,113.308c1.705,1.704,3.031,3.698,3.944,5.928l45.422,110.988
	c2.508,6.129-0.438,13.156-6.567,15.665c-4.494,1.839-9.618,0.808-13.052-2.627c-1.123-1.123-2.003-2.449-2.614-3.94l-40.574-99.143
	c-1.265-3.092-3.993-5.345-7.268-6.004c-3.272-0.659-6.661,0.365-9.024,2.726l-79.144,79.143c-3.897,3.897-3.897,10.216,0,14.113
	c3.898,3.898,10.217,3.898,14.113,0l68.534-68.534l34.893,85.259c1.621,3.957,3.966,7.487,6.971,10.493
	C416.725,385.962,430.355,388.704,442.314,383.81z M320.511,83.726c29.546-29.547,77.622-29.547,107.169,0
	c3.976,3.976,7.437,8.327,10.389,12.955h-49.863c-5.512,0-9.98,4.468-9.98,9.98s4.468,9.98,9.98,9.98h58.81
	c1.872,6.642,2.86,13.578,2.86,20.669c0,20.242-7.883,39.272-22.196,53.584L403,215.574l-50.024-50.024h52.42
	c5.512,0,9.98-4.468,9.98-9.98c0-5.512-4.468-9.98-9.98-9.98h-72.379l-37.186-37.186L320.511,83.726z"/>
<path d="M265.188,357.522c-2.625,0-5.199,1.068-7.056,2.924c-1.856,1.856-2.924,4.431-2.924,7.056s1.068,5.199,2.924,7.056
	c1.856,1.856,4.431,2.924,7.056,2.924c2.625,0,5.199-1.068,7.056-2.924c1.856-1.856,2.924-4.431,2.924-7.056
	s-1.068-5.199-2.924-7.056S267.812,357.522,265.188,357.522z"/>
<path d="M328.69,219.925l-37.211-37.21c-8.208-8.207-21.562-8.206-29.77,0l-48.836,48.836c-8.207,8.208-8.207,21.563,0,29.771
	l37.21,37.21c4.105,4.104,9.495,6.155,14.886,6.155c5.39,0,10.782-2.053,14.886-6.155l48.836-48.836
	C336.897,241.488,336.897,228.133,328.69,219.925z M314.577,235.582l-48.836,48.836c-0.425,0.427-1.119,0.426-1.543,0l-37.21-37.21
	c-0.426-0.425-0.426-1.118,0-1.543l48.836-48.836c0.213-0.213,0.492-0.319,0.771-0.319c0.279,0,0.559,0.106,0.771,0.319l37.21,37.21
	C315.002,234.464,315.002,235.157,314.577,235.582z"/>
<path d="M281.714,219.704c-2.625,0-5.199,1.068-7.056,2.924c-1.856,1.856-2.924,4.431-2.924,7.056c0,2.635,1.068,5.199,2.924,7.066
	c1.856,1.856,4.431,2.914,7.056,2.914s5.199-1.058,7.056-2.914c1.866-1.866,2.924-4.431,2.924-7.066
	c0-2.625-1.058-5.199-2.924-7.056C286.913,220.772,284.339,219.704,281.714,219.704z"/>
<path d="M259.25,242.178c-2.635,0-5.209,1.068-7.066,2.924c-1.856,1.856-2.914,4.431-2.914,7.056s1.058,5.199,2.914,7.056
	c1.856,1.856,4.431,2.924,7.066,2.924c2.625,0,5.189-1.068,7.056-2.924c1.856-1.856,2.924-4.431,2.924-7.056
	s-1.068-5.199-2.924-7.056C264.449,243.246,261.875,242.178,259.25,242.178z"/>
<path d="M36.36,82.863c1.949,1.949,4.503,2.923,7.057,2.923c2.554,0,5.109-0.974,7.057-2.923L83.387,49.95
	c3.897-3.897,3.897-10.216,0-14.114L50.473,2.923c-3.897-3.897-10.216-3.897-14.114,0L3.446,35.837
	c-3.897,3.897-3.897,10.216,0,14.114L36.36,82.863z M43.417,24.093l18.801,18.801L43.417,61.694L24.616,42.893L43.417,24.093z"/>
<path d="M475.641,429.137c-3.897-3.897-10.216-3.897-14.114,0l-32.914,32.914c-3.897,3.897-3.897,10.216,0,14.114l32.914,32.914
	c1.949,1.949,4.503,2.923,7.057,2.923c2.554,0,5.109-0.974,7.057-2.923l32.914-32.914c3.897-3.897,3.897-10.216,0-14.114
	L475.641,429.137z M468.584,487.907l-18.801-18.801l18.801-18.801l18.801,18.801L468.584,487.907z"/>
<path d="M339.829,437.105h-9.98v-9.662c0-5.512-4.468-9.98-9.98-9.98s-9.98,4.468-9.98,9.98v9.662h-9.98
	c-5.512,0-9.98,4.468-9.98,9.98c0,5.512,4.468,9.98,9.98,9.98h9.98v9.662c0,5.512,4.468,9.98,9.98,9.98s9.98-4.468,9.98-9.98v-9.662
	h9.98c5.512,0,9.98-4.468,9.98-9.98C349.809,441.573,345.341,437.105,339.829,437.105z"/>
<path d="M50.421,471.353h-9.98v-9.663c0-5.512-4.468-9.98-9.98-9.98s-9.98,4.468-9.98,9.98v9.663h-9.98
	c-5.512,0-9.98,4.468-9.98,9.98c0,5.512,4.468,9.98,9.98,9.98h9.98v9.662c0,5.512,4.468,9.98,9.98,9.98s9.98-4.468,9.98-9.98v-9.662
	h9.98c5.512,0,9.98-4.468,9.98-9.98C60.401,475.821,55.933,471.353,50.421,471.353z"/>
<path d="M461.58,39.601h9.98v9.663c0,5.512,4.468,9.98,9.98,9.98c5.512,0,9.98-4.468,9.98-9.98v-9.663h9.98
	c5.512,0,9.98-4.468,9.98-9.98s-4.468-9.98-9.98-9.98h-9.98V9.98c0-5.512-4.468-9.98-9.98-9.98c-5.512,0-9.98,4.468-9.98,9.98v9.662
	h-9.98c-5.512,0-9.98,4.468-9.98,9.98S456.068,39.601,461.58,39.601z"/>
<path d="M474.479,248.426c-1.856,1.856-2.924,4.421-2.924,7.056c0,2.625,1.068,5.189,2.924,7.056
	c1.856,1.856,4.431,2.924,7.056,2.924c2.635,0,5.199-1.068,7.066-2.924c1.856-1.866,2.914-4.431,2.914-7.056
	c0-2.635-1.058-5.199-2.914-7.056c-1.856-1.866-4.431-2.924-7.066-2.924C478.91,245.501,476.336,246.559,474.479,248.426z"/>
<path d="M240.897,471.349c-2.625,0-5.199,1.068-7.056,2.924c-1.856,1.856-2.924,4.431-2.924,7.056c0,2.635,1.068,5.199,2.924,7.066
	c1.856,1.856,4.431,2.914,7.056,2.914s5.199-1.058,7.056-2.914c1.856-1.866,2.924-4.441,2.924-7.066
	c0-2.625-1.068-5.189-2.924-7.056C246.097,472.417,243.522,471.349,240.897,471.349z"/>
<path d="M263.411,52.876c2.625,0,5.199-1.068,7.056-2.924s2.914-4.431,2.914-7.056c0-2.625-1.058-5.199-2.914-7.056
	c-1.856-1.866-4.431-2.924-7.056-2.924c-2.635,0-5.199,1.058-7.066,2.924c-1.856,1.856-2.914,4.431-2.914,7.056
	c0,2.625,1.058,5.199,2.914,7.056C258.212,51.808,260.777,52.876,263.411,52.876z"/>
<path d="M44.499,262.537c1.866-1.856,2.924-4.431,2.924-7.056c0-2.635-1.058-5.199-2.924-7.056
	c-1.856-1.866-4.421-2.924-7.056-2.924c-2.625,0-5.199,1.058-7.056,2.924c-1.856,1.856-2.924,4.421-2.924,7.056
	c0,2.625,1.068,5.189,2.924,7.056c1.856,1.856,4.431,2.924,7.056,2.924C40.078,265.461,42.643,264.393,44.499,262.537z"/>
<g>
</g>
<g>
</g>
<g>
</g>
<g>
</g>
<g>
</g>
<g>
</g>
<g>
</g>
<g>
</g>
<g>
</g>
<g>
</g>
<g>
</g>
<g>
</g>
<g>
</g>
<g>
</g>
<g>
</g>
</svg>
