<?xml version="1.0" encoding="iso-8859-1"?>
<!-- Generator: Adobe Illustrator 19.0.0, SVG Export Plug-In . SVG Version: 6.00 Build 0)  -->
<svg version="1.1" id="Layer_1" xmlns="http://www.w3.org/2000/svg" xmlns:xlink="http://www.w3.org/1999/xlink" x="0px" y="0px"
	 viewBox="0 0 512 512" style="enable-background:new 0 0 512 512;" xml:space="preserve">
<polygon style="fill:#77AAD4;" points="244.989,278.022 244.989,355.097 289.032,344.086 289.032,278.022 "/>
<polygon style="fill:#A5C6E3;" points="222.968,278.022 222.968,344.086 256,355.097 256,278.022 "/>
<polygon style="fill:#4A8DC6;" points="256,344.086 244.989,388.129 278.022,377.118 289.032,344.086 "/>
<polygon style="fill:#77AAD4;" points="222.968,344.086 233.979,377.118 256,388.129 256,344.086 "/>
<polygon style="fill:#4A8DC6;" points="118.366,239.484 96.344,256 118.366,272.516 481.72,272.516 481.72,239.484 "/>
<g>
	<rect x="233.979" y="156.903" style="fill:#A5C6E3;" width="44.043" height="88.086"/>
	<path style="fill:#A5C6E3;" d="M344.086,222.968h-33.032v66.065h33.032c9.084,0,16.516-7.432,16.516-16.516v-33.032
		C360.602,230.4,353.17,222.968,344.086,222.968z"/>
</g>
<g>
	<polygon style="fill:#0E3759;" points="316.559,377.118 316.559,410.151 283.527,410.151 261.505,393.634 283.527,377.118 	"/>
	<polygon style="fill:#0E3759;" points="316.559,134.882 316.559,167.914 283.527,167.914 261.505,151.398 283.527,134.882 	"/>
</g>
<g>
	<rect x="195.441" y="377.118" style="fill:#185E98;" width="88.086" height="33.032"/>
	<rect x="195.441" y="134.882" style="fill:#185E98;" width="88.086" height="33.032"/>
	<rect x="8.258" y="41.29" style="fill:#185E98;" width="44.043" height="165.161"/>
	<rect x="8.258" y="305.548" style="fill:#185E98;" width="44.043" height="165.161"/>
	<rect x="382.624" y="305.548" style="fill:#185E98;" width="44.043" height="165.161"/>
	<rect x="382.624" y="41.29" style="fill:#185E98;" width="44.043" height="165.161"/>
</g>
<g>
	<rect x="85.333" y="305.548" style="fill:#0E3759;" width="44.043" height="165.161"/>
	<rect x="85.333" y="41.29" style="fill:#0E3759;" width="44.043" height="165.161"/>
	<rect x="459.699" y="305.548" style="fill:#0E3759;" width="44.043" height="165.161"/>
	<rect x="459.699" y="41.29" style="fill:#0E3759;" width="44.043" height="165.161"/>
</g>
<path style="fill:#D2E3F1;" d="M311.054,222.968h-143.14c-9.084,0-16.516,7.432-16.516,16.516v33.032
	c0,9.084,7.432,16.516,16.516,16.516h143.14c9.084,0,16.516-7.432,16.516-16.516v-33.032
	C327.57,230.4,320.138,222.968,311.054,222.968z"/>
<rect x="30.28" y="239.484" style="fill:#77AAD4;" width="88.086" height="33.032"/>
<circle cx="327.57" cy="256" r="8.258"/>
<path d="M489.979,214.71h13.763c4.561,0,8.258-3.696,8.258-8.258V41.29c0-4.562-3.697-8.258-8.258-8.258H382.624
	c-4.561,0-8.258,3.696-8.258,8.258v165.161c0,4.562,3.697,8.258,8.258,8.258h13.763v16.516H367.44
	c-3.409-9.611-12.587-16.516-23.354-16.516H286.28v-38.538h30.28c4.561,0,8.258-3.696,8.258-8.258v-33.032
	c0-4.562-3.697-8.258-8.258-8.258H195.441c-4.561,0-8.258,3.696-8.258,8.258v33.032c0,4.562,3.697,8.258,8.258,8.258h30.28v38.538
	h-57.806c-10.765,0-19.945,6.905-23.354,16.516h-28.947V214.71h13.763c4.561,0,8.258-3.696,8.258-8.258V41.29
	c0-4.562-3.697-8.258-8.258-8.258H8.258C3.697,33.032,0,36.729,0,41.29v165.161c0,4.562,3.697,8.258,8.258,8.258h13.763v82.581
	H8.258c-4.561,0-8.258,3.696-8.258,8.258V470.71c0,4.562,3.697,8.258,8.258,8.258h121.118c4.561,0,8.258-3.696,8.258-8.258V305.548
	c0-4.562-3.697-8.258-8.258-8.258h-13.763v-16.516h28.947c3.409,9.611,12.588,16.516,23.354,16.516h46.796v46.796
	c0,0.407,0.04,0.805,0.097,1.197c0.011,0.075,0.021,0.149,0.034,0.222c0.068,0.394,0.161,0.78,0.283,1.153
	c0.01,0.04,7.397,22.202,7.397,22.202h-27.08c-4.561,0-8.258,3.696-8.258,8.258v33.032c0,4.562,3.697,8.258,8.258,8.258h121.118
	c4.561,0,8.258-3.696,8.258-8.258v-33.032c0-4.562-3.697-8.258-8.258-8.258h-27.08l7.387-22.162
	c0.132-0.413,0.225-0.798,0.293-1.192c0.013-0.074,0.023-0.148,0.034-0.222c0.057-0.392,0.097-0.789,0.097-1.197V297.29h46.796
	c10.765,0,19.945-6.905,23.354-16.516h28.947v16.516h-13.763c-4.561,0-8.258,3.696-8.258,8.258V470.71
	c0,4.562,3.697,8.258,8.258,8.258h121.118c4.561,0,8.258-3.696,8.258-8.258V305.548c0-4.562-3.697-8.258-8.258-8.258h-13.763V214.71
	z M368.86,264.258v-16.516h104.602v16.516H368.86z M495.484,198.194h-27.527V49.548h27.527V198.194z M390.882,49.548h27.527v24.774
	c0,4.562,3.697,8.258,8.258,8.258c4.561,0,8.258-3.696,8.258-8.258V49.548h16.516v148.645h-16.516v-90.839
	c0-4.562-3.697-8.258-8.258-8.258c-4.561,0-8.258,3.696-8.258,8.258v90.839h-27.527V49.548z M412.903,214.71h60.559v16.516h-60.559
	V214.71z M203.699,143.14h104.602v16.516H203.699V143.14z M242.237,176.172h27.527v38.538h-27.527V176.172z M38.538,264.258v-16.516
	H143.14v16.516H38.538z M121.118,198.194H93.591V49.548h27.527V198.194z M60.559,198.194V49.548h16.516v148.645H60.559z
	 M16.516,49.548h27.527v148.645H16.516V49.548z M99.097,214.71v16.516H38.538V214.71H99.097z M16.516,313.806h27.527v148.645H16.516
	V313.806z M77.075,313.806v148.645H60.559V313.806H77.075z M121.118,462.452H93.591V313.806h27.527V462.452z M99.097,297.29H38.538
	v-16.516h60.559V297.29z M308.301,401.892H203.699v-16.516h104.602V401.892z M239.931,368.86l-5.505-16.516h43.15l-5.505,16.516
	H239.931z M344.086,280.774h-71.57c-4.561,0-8.258,3.696-8.258,8.258s3.697,8.258,8.258,8.258h8.258v38.538h-49.548V297.29h8.258
	c4.561,0,8.258-3.696,8.258-8.258s-3.697-8.258-8.258-8.258h-71.57c-4.554,0-8.258-3.704-8.258-8.258v-33.032
	c0-4.554,3.704-8.258,8.258-8.258h176.172c4.554,0,8.258,3.704,8.258,8.258v33.032C352.344,277.07,348.64,280.774,344.086,280.774z
	 M390.882,313.806h27.527v148.645h-27.527V313.806z M451.441,313.806v148.645h-16.516V313.806H451.441z M495.484,462.452h-27.527
	V313.806h27.527V462.452z M412.903,297.29v-16.516h60.559v16.516H412.903z"/>
<g>
</g>
<g>
</g>
<g>
</g>
<g>
</g>
<g>
</g>
<g>
</g>
<g>
</g>
<g>
</g>
<g>
</g>
<g>
</g>
<g>
</g>
<g>
</g>
<g>
</g>
<g>
</g>
<g>
</g>
</svg>
